<svg xmlns="http://www.w3.org/2000/svg" width="720" height="120" viewBox="0 0 720 120">
  <rect x="0" y="0" width="100%" height="100%" fill="white" stroke="black" stroke-width="1"/>
  <rect x="24" y="95" width="65.2" height="1" fill="#2E3D48"/><rect x="91" y="95" width="65.2" height="1" fill="#2E3D48"/><rect x="158" y="91" width="65.2" height="5" fill="#2E3D48"/><rect x="226" y="93" width="65.2" height="3" fill="#2E3D48"/><rect x="293" y="76" width="65.2" height="20" fill="#2E3D48"/><rect x="360" y="72" width="65.2" height="24" fill="#2E3D48"/><rect x="427" y="45" width="65.2" height="51" fill="#2E3D48"/><rect x="494" y="24" width="65.2" height="72" fill="#2E3D48"/><rect x="562" y="45" width="65.2" height="51" fill="#2E3D48"/><rect x="629" y="50" width="65.2" height="46" fill="#2E3D48"/>
  <text x="26" y="114" font-size="9" fill="#2E3D48">2016</text><text x="93" y="114" font-size="9" fill="#2E3D48">2017</text><text x="160" y="114" font-size="9" fill="#2E3D48">2018</text><text x="228" y="114" font-size="9" fill="#2E3D48">2019</text><text x="295" y="114" font-size="9" fill="#2E3D48">2020</text><text x="362" y="114" font-size="9" fill="#2E3D48">2021</text><text x="429" y="114" font-size="9" fill="#2E3D48">2022</text><text x="496" y="114" font-size="9" fill="#2E3D48">2023</text><text x="564" y="114" font-size="9" fill="#2E3D48">2024</text><text x="631" y="114" font-size="9" fill="#2E3D48">2025</text>
</svg>