<svg xmlns="http://www.w3.org/2000/svg" width="720" height="120" viewBox="0 0 720 120">
  <rect x="0" y="0" width="100%" height="100%" fill="white" stroke="black" stroke-width="1"/>
  <rect x="24" y="95" width="59.09090909090909" height="1" fill="#2E3D48"/><rect x="85" y="95" width="59.09090909090909" height="1" fill="#2E3D48"/><rect x="146" y="91" width="59.09090909090909" height="5" fill="#2E3D48"/><rect x="207" y="94" width="59.09090909090909" height="2" fill="#2E3D48"/><rect x="268" y="78" width="59.09090909090909" height="18" fill="#2E3D48"/><rect x="329" y="74" width="59.09090909090909" height="22" fill="#2E3D48"/><rect x="391" y="50" width="59.09090909090909" height="46" fill="#2E3D48"/><rect x="452" y="26" width="59.09090909090909" height="70" fill="#2E3D48"/><rect x="513" y="46" width="59.09090909090909" height="50" fill="#2E3D48"/><rect x="574" y="24" width="59.09090909090909" height="72" fill="#2E3D48"/><rect x="635" y="87" width="59.09090909090909" height="9" fill="#2E3D48"/>
  <text x="26" y="114" font-size="9" fill="#2E3D48">2016</text><text x="87" y="114" font-size="9" fill="#2E3D48">2017</text><text x="148" y="114" font-size="9" fill="#2E3D48">2018</text><text x="209" y="114" font-size="9" fill="#2E3D48">2019</text><text x="270" y="114" font-size="9" fill="#2E3D48">2020</text><text x="331" y="114" font-size="9" fill="#2E3D48">2021</text><text x="393" y="114" font-size="9" fill="#2E3D48">2022</text><text x="454" y="114" font-size="9" fill="#2E3D48">2023</text><text x="515" y="114" font-size="9" fill="#2E3D48">2024</text><text x="576" y="114" font-size="9" fill="#2E3D48">2025</text><text x="637" y="114" font-size="9" fill="#2E3D48">2026</text>
</svg>